<?xml version="1.0" encoding="utf-8"?>
<!-- Generator: Adobe Illustrator 16.0.0, SVG Export Plug-In . SVG Version: 6.00 Build 0)  -->
<!DOCTYPE svg PUBLIC "-//W3C//DTD SVG 1.1//EN" "http://www.w3.org/Graphics/SVG/1.1/DTD/svg11.dtd">
<svg version="1.1" id="Layer_1" xmlns="http://www.w3.org/2000/svg" xmlns:xlink="http://www.w3.org/1999/xlink" x="0px" y="0px"
	 width="109px" height="74px" viewBox="0 0 109 74" enable-background="new 0 0 109 74" xml:space="preserve">
<path fill-rule="evenodd" clip-rule="evenodd" fill="#FFCD05" d="M81.75,74H23.844C10.675,74,0,63.458,0,50.455
	c0-10.681,7.248-19.597,17.117-22.479c-0.018-0.359-0.086-0.702-0.086-1.067c0-9.289,7.625-16.818,17.031-16.818
	c1.883,0,3.663,0.374,5.357,0.932C44.38,4.369,52.304,0,61.313,0c12.953,0,23.745,8.945,26.515,20.908
	C99.941,23.643,109,34.3,109,47.091C109,61.952,96.8,74,81.75,74z M61.313,47.091V26.909H47.688v20.182H37.256L54.5,64.119
	l17.244-17.028H61.313z"/>
</svg>
