<?xml version="1.0" encoding="utf-8"?>
<!-- Generator: Adobe Illustrator 16.0.0, SVG Export Plug-In . SVG Version: 6.00 Build 0)  -->
<!DOCTYPE svg PUBLIC "-//W3C//DTD SVG 1.1//EN" "http://www.w3.org/Graphics/SVG/1.1/DTD/svg11.dtd">
<svg version="1.1" id="Layer_1" xmlns="http://www.w3.org/2000/svg" xmlns:xlink="http://www.w3.org/1999/xlink" x="0px" y="0px"
	 width="163px" height="133px" viewBox="0 0 163 133" enable-background="new 0 0 163 133" xml:space="preserve">
<path fill-rule="evenodd" clip-rule="evenodd" fill="#CB6828" d="M162.999,15.313l-15.281,15.313c0,0,0-1.388,0,2.553
	c0,2.798-0.449,5.472-1.1,8.068c-0.356,21.066-7.053,49.001-34.556,71.051C57.96,155.668-0.001,117.402-0.001,117.402
	c45.844,0,45.844-15.314,45.844-15.314c-10.188,0-30.563-20.417-30.563-20.417c5.094,5.104,15.281,0,15.281,0
	C5.092,66.357,5.092,51.044,5.092,51.044c5.094,5.104,15.282,0,15.282,0C-5.095,30.625,10.187,5.103,10.187,5.103
	c5.094,25.522,71.313,35.731,71.313,35.731l0.842-0.422c-0.52-2.335-0.842-7.295-0.842-9.787c0-18.324,14.823-30.626,33.109-30.626
	c10.065,0,18.971,4.596,25.042,11.699l2.974-1.49l15.281-10.209l-10.188,20.418L162.999,15.313z"/>
</svg>
