<?xml version="1.0" encoding="utf-8"?>
<!-- Generator: Adobe Illustrator 16.0.0, SVG Export Plug-In . SVG Version: 6.00 Build 0)  -->
<!DOCTYPE svg PUBLIC "-//W3C//DTD SVG 1.1//EN" "http://www.w3.org/Graphics/SVG/1.1/DTD/svg11.dtd">
<svg version="1.1" id="Layer_1" xmlns="http://www.w3.org/2000/svg" xmlns:xlink="http://www.w3.org/1999/xlink" x="0px" y="0px"
	 width="24px" height="18px" viewBox="0 0 24 18" enable-background="new 0 0 24 18" xml:space="preserve">
<path fill-rule="evenodd" clip-rule="evenodd" fill="#CA992C" d="M23.736,17.3L15.46,9.023l6.125-6.125l2.17-2.17
	C23.896,0.957,24,1.211,24,1.5v15C24,16.801,23.889,17.065,23.736,17.3z M21.055,2.368l-2.793,2.793l-5.346,5.346l-0.938,0.938
	L2.945,2.415l-1.5-1.5L0.756,0.226C0.979,0.095,1.223,0,1.5,0h21c0.264,0,0.5,0.087,0.716,0.207l-0.755,0.755L21.055,2.368z
	 M0.915,1.445L8.47,9l-8.244,8.244C0.095,17.021,0,16.776,0,16.5v-15c0-0.277,0.095-0.521,0.226-0.744L0.915,1.445L0.915,1.445z
	 M9,9.53l0.316,0.316L9.43,9.96l1.031,1.031l1.5,1.5l0.063-0.063l0.016,0.016l1.406-1.406l1.484-1.484l8.258,8.258
	C22.979,17.922,22.752,18,22.5,18h-21c-0.277,0-0.521-0.095-0.744-0.226L9,9.53z"/>
</svg>
