<?xml version="1.0" encoding="utf-8"?>
<!-- Generator: Adobe Illustrator 16.0.0, SVG Export Plug-In . SVG Version: 6.00 Build 0)  -->
<!DOCTYPE svg PUBLIC "-//W3C//DTD SVG 1.1//EN" "http://www.w3.org/Graphics/SVG/1.1/DTD/svg11.dtd">
<svg version="1.1" id="Layer_1" xmlns="http://www.w3.org/2000/svg" xmlns:xlink="http://www.w3.org/1999/xlink" x="0px" y="0px"
	 width="19px" height="19px" viewBox="0 0 19 19" enable-background="new 0 0 19 19" xml:space="preserve">
<path fill-rule="evenodd" clip-rule="evenodd" d="M13.958,1.579c-0.955,0.953-0.955,2.5,0,3.453c0.956,0.953,2.505,0.953,3.46,0
	l1.4-1.397C18.925,4.036,19,4.449,19,4.883c0,2.697-2.191,4.884-4.894,4.884c-0.441,0-0.86-0.077-1.267-0.187
	c-0.014,0.015-0.018,0.034-0.032,0.048l-8.65,8.633c-0.955,0.954-2.504,0.954-3.46,0c-0.956-0.953-0.956-2.5,0-3.453l8.65-8.633
	c0.015-0.015,0.035-0.019,0.05-0.033C9.29,5.738,9.213,5.322,9.213,4.883C9.213,2.187,11.404,0,14.106,0
	c0.436,0,0.85,0.075,1.251,0.182L13.958,1.579z M2.485,15.872c-0.338,0-0.612,0.273-0.612,0.61c0,0.337,0.274,0.61,0.612,0.61
	s0.612-0.273,0.612-0.61C3.097,16.145,2.823,15.872,2.485,15.872z"/>
</svg>
