<?xml version="1.0" encoding="utf-8"?>
<!-- Generator: Adobe Illustrator 16.0.0, SVG Export Plug-In . SVG Version: 6.00 Build 0)  -->
<!DOCTYPE svg PUBLIC "-//W3C//DTD SVG 1.1//EN" "http://www.w3.org/Graphics/SVG/1.1/DTD/svg11.dtd">
<svg version="1.1" id="Layer_1" xmlns="http://www.w3.org/2000/svg" xmlns:xlink="http://www.w3.org/1999/xlink" x="0px" y="0px"
	 width="54px" height="54px" viewBox="0 0 54 54" enable-background="new 0 0 54 54" xml:space="preserve">
<path fill-rule="evenodd" clip-rule="evenodd" fill="#FFCD05" d="M-0.005,35.78L8.505,27l-8.51-8.78h7.219L15.724,27l-8.511,8.78
	H-0.005z"/>
<path fill-rule="evenodd" clip-rule="evenodd" fill="#FFCD05" d="M10.95,35.78L19.46,27l-8.51-8.78h7.219L26.68,27l-8.511,8.78
	H10.95z"/>
<path fill-rule="evenodd" clip-rule="evenodd" fill="#FFCD05" d="M54.005,35.78L45.495,27l8.51-8.78h-7.218L38.276,27l8.511,8.78
	H54.005z"/>
<path fill-rule="evenodd" clip-rule="evenodd" fill="#FFCD05" d="M43.049,35.78L34.539,27l8.51-8.78h-7.219L27.32,27l8.511,8.78
	H43.049z"/>
<path fill-rule="evenodd" clip-rule="evenodd" fill="#FFCD05" d="M18.22-0.005L27,8.505l8.781-8.51v7.219L27,15.724l-8.78-8.511
	V-0.005z"/>
<path fill-rule="evenodd" clip-rule="evenodd" fill="#FFCD05" d="M18.22,10.95L27,19.46l8.781-8.51v7.219L27,26.68l-8.78-8.511
	V10.95z"/>
<path fill-rule="evenodd" clip-rule="evenodd" fill="#FFCD05" d="M18.22,54.005l8.78-8.51l8.781,8.51v-7.218L27,38.276l-8.78,8.511
	V54.005z"/>
<path fill-rule="evenodd" clip-rule="evenodd" fill="#FFCD05" d="M18.22,43.049l8.78-8.51l8.781,8.51v-7.219L27,27.32l-8.78,8.511
	V43.049z"/>
<path opacity="0.5" fill-rule="evenodd" clip-rule="evenodd" fill="#FFCD05" d="M1,14.267l12.219-0.464L13.137,1.576l5.217,4.989
	l0.082,12.228L6.217,19.256L1,14.267z"/>
<path opacity="0.5" fill-rule="evenodd" clip-rule="evenodd" fill="#FFCD05" d="M8.918,21.839l12.219-0.464L21.055,9.147
	l5.217,4.989l0.082,12.228l-12.219,0.463L8.918,21.839z"/>
<path opacity="0.5" fill-rule="evenodd" clip-rule="evenodd" fill="#FFCD05" d="M40.035,51.596l-0.082-12.227l12.219-0.464
	l-5.217-4.989l-12.219,0.464l0.083,12.228L40.035,51.596z"/>
<path opacity="0.5" fill-rule="evenodd" clip-rule="evenodd" fill="#FFCD05" d="M32.117,44.024l-0.082-12.227l12.219-0.464
	l-5.217-4.989l-12.22,0.464l0.083,12.228L32.117,44.024z"/>
<path opacity="0.5" fill-rule="evenodd" clip-rule="evenodd" fill="#FFCD05" d="M38.904,1l0.464,12.219l12.228-0.082l-4.989,5.217
	l-12.228,0.082L33.915,6.217L38.904,1z"/>
<path opacity="0.5" fill-rule="evenodd" clip-rule="evenodd" fill="#FFCD05" d="M31.333,8.918l0.464,12.219l12.228-0.082
	l-4.989,5.217l-12.228,0.082l-0.463-12.219L31.333,8.918z"/>
<path opacity="0.5" fill-rule="evenodd" clip-rule="evenodd" fill="#FFCD05" d="M1.576,40.035l12.227-0.083l0.465,12.219
	l4.989-5.217l-0.464-12.219L6.565,34.817L1.576,40.035z"/>
<path opacity="0.5" fill-rule="evenodd" clip-rule="evenodd" fill="#FFCD05" d="M9.148,32.117l12.227-0.083l0.465,12.219
	l4.989-5.217l-0.464-12.22l-12.228,0.083L9.148,32.117z"/>
</svg>
