<?xml version="1.0" encoding="utf-8"?>
<!-- Generator: Adobe Illustrator 16.0.0, SVG Export Plug-In . SVG Version: 6.00 Build 0)  -->
<!DOCTYPE svg PUBLIC "-//W3C//DTD SVG 1.1//EN" "http://www.w3.org/Graphics/SVG/1.1/DTD/svg11.dtd">
<svg version="1.1" id="Layer_1" xmlns="http://www.w3.org/2000/svg" xmlns:xlink="http://www.w3.org/1999/xlink" x="0px" y="0px"
	 width="83.016px" height="83.016px" viewBox="0 0 83.016 83.016" enable-background="new 0 0 83.016 83.016" xml:space="preserve">
<path fill-rule="evenodd" clip-rule="evenodd" fill="#FFCD05" d="M2.189,22.287l18.781-0.713L20.844,2.779l8.019,7.668l0.126,18.795
	l-18.781,0.712L2.189,22.287z"/>
<path fill-rule="evenodd" clip-rule="evenodd" fill="#FFCD05" d="M14.36,33.925l18.78-0.713l-0.125-18.794l8.019,7.668l0.127,18.795
	l-18.782,0.712L14.36,33.925z"/>
<path fill-rule="evenodd" clip-rule="evenodd" fill="#FFCD05" d="M62.188,79.662l-0.127-18.794l18.781-0.714l-8.02-7.668
	l-18.781,0.713l0.127,18.795L62.188,79.662z"/>
<path fill-rule="evenodd" clip-rule="evenodd" fill="#FFCD05" d="M50.017,68.023L49.891,49.23l18.781-0.714l-8.02-7.669
	l-18.781,0.713l0.127,18.794L50.017,68.023z"/>
<path fill-rule="evenodd" clip-rule="evenodd" fill="#FFCD05" d="M60.449,1.895l0.713,18.78l18.795-0.125l-7.668,8.019
	l-18.795,0.126L52.781,9.914L60.449,1.895z"/>
<path fill-rule="evenodd" clip-rule="evenodd" fill="#FFCD05" d="M48.812,14.064l0.713,18.781l18.794-0.125l-7.668,8.019
	l-18.795,0.126l-0.713-18.781L48.812,14.064z"/>
<path fill-rule="evenodd" clip-rule="evenodd" fill="#FFCD05" d="M3.074,61.892l18.793-0.126l0.714,18.781l7.668-8.02l-0.713-18.781
	l-18.794,0.127L3.074,61.892z"/>
<path fill-rule="evenodd" clip-rule="evenodd" fill="#FFCD05" d="M14.712,49.722l18.794-0.126l0.713,18.781l7.669-8.02
	l-0.713-18.782l-18.795,0.127L14.712,49.722z"/>
<path opacity="0.5" fill-rule="evenodd" clip-rule="evenodd" fill="#FFCD05" d="M0,55.004l13.08-13.496L0,28.012h11.095
	l13.081,13.496L11.095,55.004H0z"/>
<path opacity="0.5" fill-rule="evenodd" clip-rule="evenodd" fill="#FFCD05" d="M16.839,55.004l13.081-13.496L16.839,28.012h11.096
	l13.081,13.496L27.935,55.004H16.839z"/>
<path opacity="0.5" fill-rule="evenodd" clip-rule="evenodd" fill="#FFCD05" d="M83.016,55.004l-13.08-13.496l13.08-13.496H71.92
	L58.839,41.508L71.92,55.004H83.016z"/>
<path opacity="0.5" fill-rule="evenodd" clip-rule="evenodd" fill="#FFCD05" d="M66.176,55.004l-13.08-13.496l13.08-13.496H55.081
	L42,41.508l13.081,13.496H66.176z"/>
<path opacity="0.5" fill-rule="evenodd" clip-rule="evenodd" fill="#FFCD05" d="M28.012,0l13.496,13.08L55.004,0v11.095
	L41.508,24.176L28.012,11.095V0z"/>
<path opacity="0.5" fill-rule="evenodd" clip-rule="evenodd" fill="#FFCD05" d="M28.012,16.839l13.496,13.081l13.496-13.081v11.096
	L41.508,41.016L28.012,27.935V16.839z"/>
<path opacity="0.5" fill-rule="evenodd" clip-rule="evenodd" fill="#FFCD05" d="M28.012,83.016l13.496-13.08l13.496,13.08V71.92
	L41.508,58.839L28.012,71.92V83.016z"/>
<path opacity="0.5" fill-rule="evenodd" clip-rule="evenodd" fill="#FFCD05" d="M28.012,66.176l13.496-13.08l13.496,13.08V55.081
	L41.508,42L28.012,55.081V66.176z"/>
</svg>
